<svg xmlns="http://www.w3.org/2000/svg" direction="ltr" viewBox="93 76.56 641.05 262.71" stroke-linecap="round" stroke-linejoin="round" style="background-color: transparent;"><g transform="matrix(1, 0, 0, 1, 125, 165)" opacity="1"><path d="M9.9994,0.1102 L49.2568,0.543 Q59.2562,0.6533 59.39,10.6523 L59.9263,48.727 Q60.0656,58.7261 50.06,58.971 L11.2423,59.9222 Q1.2453,60.1671 1.23,50.1671 L1.1875,8.5347 Q1.1763,-1.4653 11.16,-0.9819 L49.3429,0.8658 Q59.3312,1.3492 59.19,11.3482 L58.6577,49.0896 Q58.5166,59.0886 48.51,59.1996 L11.3,59.6126 Q1.3006,59.7236 1.05,49.7267 L0.0844,10.9261 Q-0.1648,0.9292 9.99,0.1102 " fill="none" class="depgraph-stroke" stroke-width="5"/></g><g transform="matrix(1, 0, 0, 1, 139.70, 177.51)" opacity="1"><g><text font-size="24px" font-family="'tldraw_mono', monospace" font-style="normal" font-weight="normal" line-height="32.400000000000006px" dominant-baseline="mathematical" alignment-baseline="mathematical"  stroke-width="2px" class="depgraph-fill"><tspan alignment-baseline="mathematical" x="0px" y="12px">A1</tspan></text><text font-size="24px" font-family="'tldraw_mono', monospace" font-style="normal" font-weight="normal" line-height="32.400000000000006px" dominant-baseline="mathematical" alignment-baseline="mathematical" stroke="none" stroke-width="2px" class="depgraph-fill"><tspan alignment-baseline="mathematical" x="0px" y="12px">A1</tspan></text></g></g><g transform="matrix(1, 0, 0, 1, 359.37, 111.60)" opacity="1"><path d="M27.9445,-0.674 Q34.4494,-3.2914 41.63,-1.3283 T54.5677,5.314 63.69,16.6219 67.45,30.6848 65.18,45.0105 57.25,57.1861 45.03,65.1275 30.69,67.3524 16.70,63.6181 5.43,54.5153 -1.1514,41.5644 -1.9344,27.1329 3.18,13.6411 13.37,3.3309 26.87,-1.9356 41.36,-1.2295 54.33,5.2653 63.52,16.4753 65.74,30.4746 64.55,37.8858 64.54,37.8862 62.75,31.8153 58.40,20.2216 51.23,10.7038 40.76,5.0196 28.84,4.0446 17.59,7.9604 8.87,16.1433 4.26,27.1073 4.52,39.0215 9.60,49.8212 18.64,57.6157 30.01,61.0475 41.84,59.6025 52.06,53.4484 58.84,43.681 61.09,32.042 58.42,20.4648 51.28,10.9741 40.94,5.1735 28.29,2.6622 21.44,1.9532 27.94,-0.674 Z" class="depgraph-fill"/></g><g transform="matrix(1, 0, 0, 1, 376.44, 127.56)" opacity="1"><g><text font-size="24px" font-family="'tldraw_mono', monospace" font-style="normal" font-weight="normal" line-height="32.400000000000006px" dominant-baseline="mathematical" alignment-baseline="mathematical"  stroke-width="2px" class="depgraph-fill"><tspan alignment-baseline="mathematical" x="0px" y="12px">C1</tspan></text><text font-size="24px" font-family="'tldraw_mono', monospace" font-style="normal" font-weight="normal" line-height="32.400000000000006px" dominant-baseline="mathematical" alignment-baseline="mathematical" stroke="none" stroke-width="2px" class="depgraph-fill"><tspan alignment-baseline="mathematical" x="0px" y="12px">C1</tspan></text></g></g><g transform="matrix(1, 0, 0, 1, 450, 151)" opacity="1"><g><defs><mask id="shape_Zx8oqziwBF5WlminspLeP_clip"><rect x="-350.29424369633006" y="-93.18061737361035" width="363.91" height="222.19" fill="white"/><path d="M -238.54652912282788 33.95 L -250.29424369633006 24.62 L -236.3430476321942 19.11" fill="none" stroke="none"/></mask></defs><g mask="url(#shape_Zx8oqziwBF5WlminspLeP_clip)"><rect x="-100" y="-100" width="363.91" height="222.19" fill="transparent" stroke="none"/><path d="M-86.3810443597589,6.819382626389711 A297.416691195485 297.41 0 0 1 -250.29424369633006,24.62575284398048" fill="none" class="depgraph-stroke" stroke-width="5" stroke-dasharray="none" stroke-dashoffset="none"/></g><path d="M -238.54652912282788 33.95 L -250.29424369633006 24.62 L -236.3430476321942 19.11" fill="none" class="depgraph-stroke" stroke-width="5"/></g></g><g transform="matrix(1, 0, 0, 1, 637.05, 108.60)" opacity="1"><path d="M29.1205,65.8272 Q22.2019,66.8011 15.73,63.3048 T4.7421,53.9106 -1.5054,40.8735 -1.9838,26.5007 3.39,13.109 13.74,3.0169 27.23,-2.0369 41.64,-1.2732 54.48,5.2792 63.60,16.4663 67.39,30.3589 65.24,44.6238 57.60,56.7881 45.69,64.8522 31.48,67.4013 17.46,63.9624 6.07,55.2005 -0.8451,42.6023 -0.5454,28.5675 1.89,21.5676 1.90,21.569 2.54,27.8046 4.70,39.9099 10.06,50.4827 19.23,57.9616 30.66,61.1195 42.38,59.4044 52.38,53.1327 59.00,43.3663 61.14,31.7505 58.39,20.2859 51.26,10.8488 40.96,5.0944 29.16,4.0212 17.96,7.7787 9.24,15.7822 4.49,26.5957 4.50,38.3512 9.23,49.1559 17.92,57.1235 29.57,62.4961 36.04,64.8434 29.12,65.8272 Z" class="depgraph-fill"/></g><g transform="matrix(1, 0, 0, 1, 657.12, 123.56)" opacity="1"><g><text font-size="24px" font-family="'tldraw_mono', monospace" font-style="normal" font-weight="normal" line-height="32.400000000000006px" dominant-baseline="mathematical" alignment-baseline="mathematical"  stroke-width="2px" class="depgraph-fill"><tspan alignment-baseline="mathematical" x="0px" y="12px">C2</tspan></text><text font-size="24px" font-family="'tldraw_mono', monospace" font-style="normal" font-weight="normal" line-height="32.400000000000006px" dominant-baseline="mathematical" alignment-baseline="mathematical" stroke="none" stroke-width="2px" class="depgraph-fill"><tspan alignment-baseline="mathematical" x="0px" y="12px">C2</tspan></text></g></g><g transform="matrix(1, 0, 0, 1, 503, 157)" opacity="1"><g><defs><mask id="shape_fcCN62JDOpkAThJzCHa6S_clip"><rect x="-179.09690397805448" y="-148.43938211374848" width="408.18" height="233.94" fill="white"/><path d="M 117.73 -51.28040401970966 L 129.08 -41.47249536653152 L 114.91 -36.547731776312474" fill="none" stroke="none"/></mask></defs><g mask="url(#shape_fcCN62JDOpkAThJzCHa6S_clip)"><rect x="-100" y="-100" width="408.18" height="233.94" fill="transparent" stroke="none"/><path d="M-79.09690397805451,-14.496560398768622 A313.0595189501126 313.05 0 0 1 129.08,-41.47249536653152" fill="none" class="depgraph-stroke" stroke-width="5" stroke-dasharray="none" stroke-dashoffset="none"/></g><path d="M 117.73 -51.28040401970966 L 129.08 -41.47249536653152 L 114.91 -36.547731776312474" fill="none" class="depgraph-stroke" stroke-width="5"/></g></g><g transform="matrix(1, 0, 0, 1, 489.74, 242.60)" opacity="1"><path d="M62.2641,47.6641 Q60.6168,54.5677 54.82,59.4329 T41.6958,66.281 26.91,67.0672 13.19,61.6965 2.90,51.1032 -2.1226,37.1588 -0.969,22.4281 6.14,9.5124 18.02,0.725 32.47,-2.3663 46.87,0.7263 58.72,9.5105 65.90,22.385 67.10,37.0777 62.08,50.958 51.84,61.5213 38.15,66.9188 23.43,66.1651 11.44,58.2009 6.71,52.2052 6.72,52.1976 12.45,55.1504 24.08,59.9544 36.14,60.9637 47.55,56.8946 56.27,48.5148 60.77,37.2656 60.17,25.1994 54.64,14.4329 45.20,6.877 33.47,3.9001 21.58,6.0471 11.66,12.9482 5.45,23.2883 4.06,35.2866 7.79,46.8153 15.89,55.7428 26.92,60.5271 38.99,60.3385 49.89,55.1382 59.32,46.0363 63.90,40.756 62.26,47.6641 Z" class="depgraph-fill"/></g><g transform="matrix(1, 0, 0, 1, 507.80, 260.56)" opacity="1"><g><text font-size="24px" font-family="'tldraw_mono', monospace" font-style="normal" font-weight="normal" line-height="32.400000000000006px" dominant-baseline="mathematical" alignment-baseline="mathematical"  stroke-width="2px" class="depgraph-fill"><tspan alignment-baseline="mathematical" x="0px" y="12px">C3</tspan></text><text font-size="24px" font-family="'tldraw_mono', monospace" font-style="normal" font-weight="normal" line-height="32.400000000000006px" dominant-baseline="mathematical" alignment-baseline="mathematical" stroke="none" stroke-width="2px" class="depgraph-fill"><tspan alignment-baseline="mathematical" x="0px" y="12px">C3</tspan></text></g></g><g transform="matrix(1, 0, 0, 1, 613, 313)" opacity="1"><g><defs><mask id="shape_rBD3cOi9rrFE4WXb43byr_clip"><rect x="-146.56842393317717" y="-240.1891099469728" width="301.72" height="288.88" fill="white"/><path d="M -31.724173236010632 -49.146018274053716 L -46.56842393317717 -51.30199165971288 L -37.27917086272991 -63.07950317077439" fill="none" stroke="none"/></mask></defs><g mask="url(#shape_rBD3cOi9rrFE4WXb43byr_clip)"><rect x="-100" y="-100" width="301.72" height="288.88" fill="transparent" stroke="none"/><path d="M55.15766941045331,-140.18910994697282 A182.11345058292093 182.11 0 0 1 -46.56842393317717,-51.30199165971288" fill="none" class="depgraph-stroke" stroke-width="5" stroke-dasharray="none" stroke-dashoffset="none"/></g><path d="M -31.724173236010632 -49.146018274053716 L -46.56842393317717 -51.30199165971288 L -37.27917086272991 -63.07950317077439" fill="none" class="depgraph-stroke" stroke-width="5"/></g></g><g transform="matrix(1, 0, 0, 1, 457, 370)" opacity="1"><g><defs><mask id="shape_kgG97U5uHAIMiUiVsBtVR_clip"><rect x="-168.80711055664403" y="-280.3386510815447" width="302.86" height="285.80" fill="white"/><path d="M -71.24977017036662 -165.5388735828291 L -68.80711055664405 -180.3386510815447 L -57.2114570792603 -170.82335705390486" fill="none" stroke="none"/></mask></defs><g mask="url(#shape_kgG97U5uHAIMiUiVsBtVR_clip)"><rect x="-100" y="-100" width="302.86" height="285.80" fill="transparent" stroke="none"/><path d="M34.05702623195663,-94.53253386975325 A122.84875504266859 122.84 0 0 1 -68.80711055664405,-180.3386510815447" fill="none" class="depgraph-stroke" stroke-width="5" stroke-dasharray="none" stroke-dashoffset="none"/></g><path d="M -71.24977017036662 -165.5388735828291 L -68.80711055664405 -180.3386510815447 L -57.2114570792603 -170.82335705390486" fill="none" class="depgraph-stroke" stroke-width="5"/></g></g></svg>
