<?xml version="1.0"?>
<svg xmlns="http://www.w3.org/2000/svg" direction="ltr" viewBox="100 252.93 1000.95 469.53" stroke-linecap="round" stroke-linejoin="round" style="background-color: transparent;">
  <g transform="matrix(1, 0, 0, 1, 139, 390)" opacity="1">
    <path d="M9.9967,-0.2567 L51.3355,-1.3183 Q61.3322,-1.575 60.87,8.4146 L59.0559,48.3899 Q58.6008,58.3795 48.60,58.4725 L11.3257,58.8192 Q1.3261,58.9122 1.34,48.9122 L1.4035,8.9598 Q1.419,-1.0401 11.41,-0.8063 L50.2158,0.1012 Q60.2131,0.335 59.98,10.3325 L59.101,49.8786 Q58.8766,59.8761 48.87,59.7611 L10.1047,59.3154 Q0.1053,59.2004 -0.1135,49.2028 L-0.9929,9.0194 Q-1.2117,-0.9782 9.99,-0.2567 " fill="none" stroke="#099268" stroke-width="5"/>
  </g>
  <g transform="matrix(1, 0, 0, 1, 132, 478)" opacity="1">
    <path d="M9.9986,-0.1697 L51.0858,-0.867 Q61.0844,-1.0366 61.10,8.9633 L61.1806,50.7522 Q61.1992,60.7522 51.20,60.5965 L11.0935,59.972 Q1.0947,59.8164 1.12,49.8164 L1.2335,11.5732 Q1.2622,1.5733 11.26,1.5248 L49.0709,1.3413 Q59.0708,1.2928 58.95,11.2921 L58.4866,51.1749 Q58.3695,61.1742 48.37,60.8899 L9.985,59.7981 Q-0.0109,59.5138 0.21,49.5164 L1.0929,11.0878 Q1.3208,1.0904 9.99,-0.1697 " fill="none" class="depgraph-stroke" stroke-width="5"/>
  </g>
  <g transform="matrix(1, 0, 0, 1, 141, 565)" opacity="1">
    <path d="M10,-0.0282 L51.6537,-0.1459 Q61.6536,-0.1742 61.50,9.8248 L60.9405,49.1038 Q60.7959,59.1028 50.79,59.3734 L10.7559,60.4573 Q0.7596,60.7279 0.61,50.729 L-0.0191,8.4804 Q-0.1681,-1.5185 9.82,-1.2201 L50.3738,-0.0098 Q60.3693,0.2886 60.51,10.2875 L61.0778,49.4966 Q61.2217,59.4955 51.22,59.825 L10.5247,61.1668 Q0.5302,61.4963 0.19,51.5018 L-1.1501,10.925 Q-1.4822,0.9305 10,-0.0282 " fill="none" class="depgraph-stroke" stroke-width="5"/>
  </g>
  <g transform="matrix(1, 0, 0, 1, 464.37, 420.60)" opacity="1">
    <path d="M5.3509,52.0277 Q-0.128,47.2626 -1.7,39.6955 T-1.552,24.6014 4.94,10.9895 16.57,1.4023 31.13,-2.3906 45.96,0.3023 58.26,9.0084 65.69,22.0464 66.94,36.9854 61.84,51.088 51.27,61.71 37.24,66.9437 22.31,65.7888 9.24,58.4166 0.48,46.1928 -2.2907,31.4215 1.43,16.8924 10.85,5.2157 24.64,0.1946 32.43,0.0004 32.44,0.0102 26.52,2.8293 15.52,9.4401 7.38,18.7766 3.89,30.6028 5.78,42.835 12.61,53.1846 23.14,59.674 35.44,61.1063 47.22,57.2143 56.25,48.7249 60.81,37.1948 60.13,24.852 54.34,13.98 44.48,6.5663 32.41,3.9565 20.43,6.6358 10.66,14.1274 4.95,25.0312 4.39,37.3519 8.14,50.1788 10.83,56.787 5.35,52.0277 Z" fill="#099268"/>
  </g>
  <g transform="matrix(1, 0, 0, 1, 328, 416)" opacity="1">
    <g>
      <defs>
        <mask id="shape_S-Uus0NFmYGYezjroerrN_clip">
          <rect x="-221.00947280945599" y="-53.586667418074285" width="458.79" height="240.79" fill="white"/>
          <path d="M -107.67132256333163 94.06 L -121.00947280945597 87.20 L -108.39730833750632 79.08" fill="none" stroke="none"/>
        </mask>
      </defs>
      <g mask="url(#shape_S-Uus0NFmYGYezjroerrN_clip)">
        <rect x="-100" y="-100" width="458.79" height="240.79" fill="transparent" stroke="none"/>
        <path d="M137.78735921321334,46.41333258192577 A1146.9865798805959 1146.98 0 0 1 -121.00947280945597,87.20590878763483" fill="none" class="depgraph-stroke" stroke-width="5" stroke-dasharray="none" stroke-dashoffset="none"/>
      </g>
      <path d="M -107.67132256333163 94.06 L -121.00947280945597 87.20 L -108.39730833750632 79.08" fill="none" class="depgraph-stroke" stroke-width="5"/>
    </g>
  </g>
  <g transform="matrix(1, 0, 0, 1, 333, 422)" opacity="1">
    <g>
      <defs>
        <mask id="shape_MuWr9XOb2cbTfhnwf_mlb_clip">
          <rect x="-219.0022369565704" y="-98.712730774781" width="451.69" height="223.13" fill="white"/>
          <path d="M -105.97606087952738 8.78 L -119.00223695657043 1.34 L -106.04794929318058 -6.216779852340175" fill="none" stroke="none"/>
        </mask>
      </defs>
      <g mask="url(#shape_MuWr9XOb2cbTfhnwf_mlb_clip)">
        <rect x="-100" y="-100" width="451.69" height="223.13" fill="transparent" stroke="none"/>
        <path d="M132.6899829470144,24.42296476960871 A1237.6474787048699 1237.64 0 0 0 -119.00223695657043,1.3453912072263847" fill="none" stroke="#099268" stroke-width="5" stroke-dasharray="10.12 10.96" stroke-dashoffset="5"/>
      </g>
      <path d="M -105.97606087952738 8.78 L -119.00223695657043 1.34 L -106.04794929318058 -6.216779852340175" fill="none" stroke="#099268" stroke-width="5"/>
    </g>
  </g>
  <g transform="matrix(1, 0, 0, 1, 452.74, 572.60)" opacity="1">
    <path d="M65.5588,27.6212 Q68.2476,34.3734 66.20,41.814 T59.1942,55.1351 47.20,64.2391 32.47,67.4478 17.79,64.2083 5.82,55.0737 -1.156,41.7445 -1.8371,26.7711 3.80,12.8802 14.75,2.6285 28.99,-2.0635 43.85,-0.3472 56.63,7.454 64.93,19.9229 67.24,34.7299 63.14,49.1313 53.31,60.4278 39.64,66.5847 25.09,64.8856 18.02,61.5655 18.02,61.5558 24.60,61.7074 37.38,60.748 48.78,56.0522 57.17,47.0514 60.99,35.3393 59.57,23.0675 53.11,12.5411 42.79,5.6886 30.57,3.8102 18.68,7.2999 9.41,15.4857 4.47,26.7881 4.69,39.0591 10.05,50.1267 19.55,57.9436 31.44,61.0334 43.56,58.8511 53.60,51.7769 59.71,41.1169 62.22,27.9865 62.86,20.8705 65.55,27.6212 Z" class="depgraph-fill"/>
  </g>
  <g transform="matrix(1, 0, 0, 1, 328, 618)" opacity="1">
    <g>
      <defs>
        <mask id="shape_HTmN5rub6AqIs0e4ND-yl_clip">
          <rect x="-212.40539315801647" y="-111.19381198382791" width="438.46" height="214.54" fill="white"/>
          <path d="M -101.24339284486402 -1.1733454772632292 L -112.40539315801647 -11.193811983827914 L -98.14641444898412 -15.850154558785448" fill="none" stroke="none"/>
        </mask>
      </defs>
      <g mask="url(#shape_HTmN5rub6AqIs0e4ND-yl_clip)">
        <rect x="-100" y="-100" width="438.46" height="214.54" fill="transparent" stroke="none"/>
        <path d="M126.0570262319568,-6.2419040541955155 A601.250492342686 601.25 0 0 1 -112.40539315801647,-11.193811983827914" fill="none" class="depgraph-stroke" stroke-width="5" stroke-dasharray="none" stroke-dashoffset="none"/>
      </g>
      <path d="M -101.24339284486402 -1.1733454772632292 L -112.40539315801647 -11.193811983827914 L -98.14641444898412 -15.850154558785448" fill="none" class="depgraph-stroke" stroke-width="5"/>
    </g>
  </g>
  <g transform="matrix(1, 0, 0, 1, 715.83, 625.80)" opacity="1">
    <path d="M59.5203,52.2089 Q56.8167,58.7785 50.34,62.6092 T36.4118,67.2944 21.78,65.8327 9.04,58.4642 0.45,46.5226 -2.4709,32.124 0.79,17.7672 9.67,6.0216 22.56,-1.0006 37.17,-2.0624 50.96,2.9298 61.50,13.0982 66.87,26.7417 66.17,41.398 59.60,54.4706 48.20,63.6223 34.00,67.2924 19.56,64.851 8.60,55.6157 4.61,49.1579 4.62,49.1511 9.94,52.728 20.91,58.8221 32.74,61.2247 44.51,58.5381 54.12,51.3269 59.92,40.7706 60.93,28.728 56.91,17.3738 48.52,8.7006 37.33,4.2077 25.36,4.7711 14.63,10.209 7.03,19.5401 3.92,31.1727 5.91,42.9918 12.61,52.9743 22.78,59.3636 34.65,60.9849 46.15,57.5768 56.87,50.1383 62.21,45.6334 59.52,52.2089 Z" class="depgraph-fill"/>
  </g>
  <g transform="matrix(1, 0, 0, 1, 729.41, 681.47)" opacity="1">
    <g>
      <defs>
        <mask id="shape_X8HvbM0krabnp7OGqGHY6_clip">
          <rect x="-300.73259218453165" y="-160.6716260639862" width="388.46" height="237.69" fill="white"/>
          <path d="M -191.1996896308442 -49.090444392761974 L -200.73259218453163 -60.671626063986196 L -185.93654337456502 -63.13677101166893" fill="none" stroke="none"/>
        </mask>
      </defs>
      <g mask="url(#shape_X8HvbM0krabnp7OGqGHY6_clip)">
        <rect x="-100" y="-100" width="388.46" height="237.69" fill="transparent" stroke="none"/>
        <path d="M-12.26591343011512,-22.976430069392563 A553.0034356305026 553.00 0 0 1 -200.73259218453163,-60.671626063986196" fill="none" class="depgraph-stroke" stroke-width="5" stroke-dasharray="none" stroke-dashoffset="none"/>
      </g>
      <path d="M -191.1996896308442 -49.090444392761974 L -200.73259218453163 -60.671626063986196 L -185.93654337456502 -63.13677101166893" fill="none" class="depgraph-stroke" stroke-width="5"/>
    </g>
  </g>
  <g transform="matrix(1, 0, 0, 1, 584.47, 284.60)" opacity="1">
    <path d="M2.5,32.5a30,30,0,1,1,60,0a30,30,0,1,1,-60,0" stroke-width="5" width="65" height="65" fill="none" stroke="#099268" stroke-dasharray="11.78 11.78" stroke-dashoffset="5.89"/>
  </g>
  <g transform="matrix(1, 0, 0, 1, 632.37, 467.27)" opacity="1">
    <g>
      <defs>
        <mask id="shape_nHJESl4NN_WuTTWJyqfHY_clip">
          <rect x="-195.72394260943534" y="-221.43155925929767" width="268.18" height="282.03" fill="white"/>
          <path d="M -80.9427299272046 -41.953510934189204 L -95.72394260943534 -39.40091389535576 L -90.54395014957467 -53.47811809632502" fill="none" stroke="none"/>
        </mask>
      </defs>
      <g mask="url(#shape_nHJESl4NN_WuTTWJyqfHY_clip)">
        <rect x="-100" y="-100" width="268.18" height="282.03" fill="transparent" stroke="none"/>
        <path d="M-27.53816904171572,-121.43155925929773 A253.07224584079222 253.07 0 0 1 -95.72394260943534,-39.40091389535576" fill="none" stroke="#099268" stroke-width="5" stroke-dasharray="11.74 14.68" stroke-dashoffset="5"/>
      </g>
      <path d="M -80.9427299272046 -41.953510934189204 L -95.72394260943534 -39.40091389535576 L -90.54395014957467 -53.47811809632502" fill="none" stroke="#099268" stroke-width="5"/>
    </g>
  </g>
  <g transform="matrix(1, 0, 0, 1, 634.37, 462.27)" opacity="1">
    <g>
      <defs>
        <mask id="shape_yFE8tlO62zLgjcstlJGdC_clip">
          <rect x="-521.5032660831482" y="-246.53192762439699" width="572.92" height="268.55" fill="white"/>
          <path d="M -406.6691376076127 -75.74749533644881 L -421.5032660831482 -77.97204750965284 L -412.1596831513419 -89.70650352586668" fill="none" stroke="none"/>
        </mask>
      </defs>
      <g mask="url(#shape_yFE8tlO62zLgjcstlJGdC_clip)">
        <rect x="-100" y="-100" width="572.92" height="268.55" fill="transparent" stroke="none"/>
        <path d="M-48.58239178764404,-146.34212183471578 A947.9469898655045 947.94 0 0 0 -421.5032660831482,-77.97204750965284" fill="none" stroke="#099268" stroke-width="5" stroke-dasharray="10.30 10.88" stroke-dashoffset="5"/>
      </g>
      <path d="M -406.6691376076127 -75.74749533644881 L -421.5032660831482 -77.97204750965284 L -412.1596831513419 -89.70650352586668" fill="none" stroke="#099268" stroke-width="5"/>
    </g>
  </g>
  <g transform="matrix(1, 0, 0, 1, 1000.27, 314.49)" opacity="1">
    <path d="M2.5,32.5a30,30,0,1,1,60,0a30,30,0,1,1,-60,0" stroke-width="5" width="65" height="65" fill="none" stroke="#099268" stroke-dasharray="11.78 11.78" stroke-dashoffset="5.89"/>
  </g>
  <g transform="matrix(1, 0, 0, 1, 864.41, 355.47)" opacity="1">
    <g>
      <defs>
        <mask id="shape_TsRedPUR0PDHnqUJLAypL_clip">
          <rect x="-420.20684107956305" y="-98.20502879503601" width="658.09" height="294.13" fill="white"/>
          <path d="M -306.54664670263526 102.12 L -320.20684107956305 95.93 L -308.0102443626903 87.20" fill="none" stroke="none"/>
        </mask>
      </defs>
      <g mask="url(#shape_TsRedPUR0PDHnqUJLAypL_clip)">
        <rect x="-100" y="-100" width="658.09" height="294.13" fill="transparent" stroke="none"/>
        <path d="M137.8847061320364,1.7949712049640425 A2160.9353149781186 2160.93 0 0 1 -320.20684107956305,95.9330740147011" fill="none" stroke="#099268" stroke-width="5" stroke-dasharray="10.40 10.87" stroke-dashoffset="5"/>
      </g>
      <path d="M -306.54664670263526 102.12 L -320.20684107956305 95.93 L -308.0102443626903 87.20" fill="none" stroke="#099268" stroke-width="5"/>
    </g>
  </g>
  <g transform="matrix(1, 0, 0, 1, 1003.95, 459.49)" opacity="1">
    <path d="M2.5,32.5a30,30,0,1,1,60,0a30,30,0,1,1,-60,0" stroke-width="5" width="65" height="65" fill="none" class="depgraph-stroke" stroke-dasharray="0.05 11.72" stroke-dashoffset="0.02"/>
  </g>
  <g transform="matrix(1, 0, 0, 1, 1003.63, 601.49)" opacity="1">
    <path d="M28.0372,65.5952 Q20.6474,66.3012 13.97,62.0741 T3.0549,51.214 -2.1314,36.7362 -0.5828,21.4317 7.35,8.2982 20.21,-0.1248 35.46,-2.1966 50.04,2.491 61.22,12.9727 66.84,27.1969 65.77,42.48 58.26,55.8226 45.74,64.6384 30.66,67.2433 15.90,63.0755 4.36,52.9984 -1.6652,38.9226 -1.1223,23.5634 7.08,11.0978 13.32,6.2273 13.33,6.2339 10.16,12.1048 5.10,24.1594 4.21,36.7705 8.77,48.5279 17.95,57.1393 29.95,60.9837 42.42,59.2934 53.00,52.4261 59.62,41.6814 60.94,29.1458 56.71,17.2526 47.82,8.3064 35.97,4.1167 23.44,5.4461 12.70,11.9781 5.81,22.4626 4.08,34.9037 7.91,46.866 16.50,56.0599 28.62,62.2925 35.42,64.8793 28.03,65.5952 Z" class="depgraph-fill"/>
  </g>
  <g transform="matrix(1, 0, 0, 1, 882.41, 636.47)" opacity="1">
    <g>
      <defs>
        <mask id="shape_P2YkL8fQuzD6-zEjB6MQj_clip">
          <rect x="-187.4060785800255" y="-99.78544777762056" width="409.94" height="217.72" fill="white"/>
          <path d="M -73.83063559233113 24.32 L -87.4060785800255 17.94 L -75.09291495310923 9.37" fill="none" stroke="none"/>
        </mask>
      </defs>
      <g mask="url(#shape_P2YkL8fQuzD6-zEjB6MQj_clip)">
        <rect x="-100" y="-100" width="409.94" height="217.72" fill="transparent" stroke="none"/>
        <path d="M122.53634194940537,0.21455222237943872L-87.4060785800255,17.94450718285517" fill="none" class="depgraph-stroke" stroke-width="5" stroke-dasharray="none" stroke-dashoffset="none"/>
      </g>
      <path d="M -73.83063559233113 24.32 L -87.4060785800255 17.94 L -75.09291495310923 9.37" fill="none" class="depgraph-stroke" stroke-width="5"/>
    </g>
  </g>
  <g transform="matrix(1, 0, 0, 1, 719.52, 511.80)" opacity="1">
    <path d="M2.5,32.5a30,30,0,1,1,60,0a30,30,0,1,1,-60,0" stroke-width="5" width="65" height="65" fill="none" stroke="#099268" stroke-dasharray="11.78 11.78" stroke-dashoffset="5.89"/>
  </g>
  <g transform="matrix(1, 0, 0, 1, 874.41, 499.47)" opacity="1">
    <g>
      <defs>
        <mask id="shape_k4splTVG2geIjq4HtRLIZ_clip">
          <rect x="-181.05200135704428" y="-113.35661894464982" width="411.90" height="235.58" fill="white"/>
          <path d="M -66.18589226619696 24.23 L -81.05200135704426 22.23 L -71.8871557231026 10.35" fill="none" stroke="none"/>
        </mask>
      </defs>
      <g mask="url(#shape_k4splTVG2geIjq4HtRLIZ_clip)">
        <rect x="-100" y="-100" width="411.90" height="235.58" fill="transparent" stroke="none"/>
        <path d="M130.85282030693406,-11.562404332465746 A435.43967645474123 435.43 0 0 0 -81.05200135704426,22.232672416289176" fill="none" class="depgraph-stroke" stroke-width="5" stroke-dasharray="0.05 10.78" stroke-dashoffset="0.02"/>
      </g>
      <path d="M -66.18589226619696 24.23 L -81.05200135704426 22.23 L -71.8871557231026 10.35" fill="none" class="depgraph-stroke" stroke-width="5"/>
    </g>
  </g>
  <g transform="matrix(1, 0, 0, 1, 736.41, 560.47)" opacity="1">
    <g>
      <defs>
        <mask id="shape_KtvuH4OpWM5Lw9lw_RZEH_clip">
          <rect x="-293.9105421586628" y="-199.03338266976482" width="382.47" height="267.25" fill="white"/>
          <path d="M -182.9319704023163 -88.81227890398932 L -193.91054215866282 -99.03338266976482 L -179.56952076461118 -103.43055282514351" fill="none" stroke="none"/>
        </mask>
      </defs>
      <g mask="url(#shape_KtvuH4OpWM5Lw9lw_RZEH_clip)">
        <rect x="-100" y="-100" width="382.47" height="267.25" fill="transparent" stroke="none"/>
        <path d="M-11.436232625878006,-31.77705454537511 A708.7585526134293 708.75 0 0 0 -193.91054215866282,-99.03338266976482" fill="none" stroke="#099268" stroke-width="5" stroke-dasharray="10.25 11.39" stroke-dashoffset="5"/>
      </g>
      <path d="M -182.9319704023163 -88.81227890398932 L -193.91054215866282 -99.03338266976482 L -179.56952076461118 -103.43055282514351" fill="none" stroke="#099268" stroke-width="5"/>
    </g>
  </g>
  <g transform="matrix(1, 0, 0, 1, 731.41, 557.47)" opacity="1">
    <g>
      <defs>
        <mask id="shape_x8qwKV53Nq7KFYiDWZQd5_clip">
          <rect x="-300.3559904798832" y="-99.83607108036148" width="392.45" height="241.57" fill="white"/>
          <path d="M -187.07055735483164 48.69 L -200.35599047988316 41.73 L -187.6822748284968 33.71" fill="none" stroke="none"/>
        </mask>
      </defs>
      <g mask="url(#shape_x8qwKV53Nq7KFYiDWZQd5_clip)">
        <rect x="-100" y="-100" width="392.45" height="241.57" fill="transparent" stroke="none"/>
        <path d="M-7.8981140537617875,0.16392891963846523 A532.2605680375101 532.26 0 0 1 -200.35599047988316,41.73545178341624" fill="none" class="depgraph-stroke" stroke-width="5" stroke-dasharray="none" stroke-dashoffset="none"/>
      </g>
      <path d="M -187.07055735483164 48.69 L -200.35599047988316 41.73 L -187.6822748284968 33.71" fill="none" class="depgraph-stroke" stroke-width="5"/>
    </g>
  </g>
  <g transform="matrix(1, 0, 0, 1, 153.70, 402.51)" opacity="1">
    <g>
      <text font-size="24px" font-family="ui-monospace, monospace" font-style="normal" font-weight="normal" line-height="32.400000000000006px" dominant-baseline="mathematical" alignment-baseline="mathematical"  stroke-width="2px" class="depgraph-fill">
        <tspan alignment-baseline="mathematical" x="0px" y="12px">A1</tspan>
      </text>
      <text font-size="24px" font-family="ui-monospace, monospace" font-style="normal" font-weight="normal" line-height="32.400000000000006px" dominant-baseline="mathematical" alignment-baseline="mathematical" stroke="none" stroke-width="2px" class="depgraph-fill">
        <tspan alignment-baseline="mathematical" x="0px" y="12px">A1</tspan>
      </text>
    </g>
  </g>
  <g transform="matrix(1, 0, 0, 1, 148.70, 493.92)" opacity="1">
    <g>
      <text font-size="24px" font-family="ui-monospace, monospace" font-style="normal" font-weight="normal" line-height="32.400000000000006px" dominant-baseline="mathematical" alignment-baseline="mathematical"  stroke-width="2px" class="depgraph-fill">
        <tspan alignment-baseline="mathematical" x="0px" y="12px">A2</tspan>
      </text>
      <text font-size="24px" font-family="ui-monospace, monospace" font-style="normal" font-weight="normal" line-height="32.400000000000006px" dominant-baseline="mathematical" alignment-baseline="mathematical" stroke="none" stroke-width="2px" class="depgraph-fill">
        <tspan alignment-baseline="mathematical" x="0px" y="12px">A2</tspan>
      </text>
    </g>
  </g>
  <g transform="matrix(1, 0, 0, 1, 158.04, 579.96)" opacity="1">
    <g>
      <text font-size="24px" font-family="ui-monospace, monospace" font-style="normal" font-weight="normal" line-height="32.400000000000006px" dominant-baseline="mathematical" alignment-baseline="mathematical"  stroke-width="2px" class="depgraph-fill">
        <tspan alignment-baseline="mathematical" x="0px" y="12px">A3</tspan>
      </text>
      <text font-size="24px" font-family="ui-monospace, monospace" font-style="normal" font-weight="normal" line-height="32.400000000000006px" dominant-baseline="mathematical" alignment-baseline="mathematical" stroke="none" stroke-width="2px" class="depgraph-fill">
        <tspan alignment-baseline="mathematical" x="0px" y="12px">A3</tspan>
      </text>
    </g>
  </g>
  <g transform="matrix(1, 0, 0, 1, 602.94, 300.34)" opacity="1">
    <g>
      <text font-size="24px" font-family="ui-monospace, monospace" font-style="normal" font-weight="normal" line-height="32.400000000000006px" dominant-baseline="mathematical" alignment-baseline="mathematical"  stroke-width="2px" class="depgraph-fill">
        <tspan alignment-baseline="mathematical" x="0px" y="12px">C3</tspan>
      </text>
      <text font-size="24px" font-family="ui-monospace, monospace" font-style="normal" font-weight="normal" line-height="32.400000000000006px" dominant-baseline="mathematical" alignment-baseline="mathematical" stroke="none" stroke-width="2px" class="depgraph-fill">
        <tspan alignment-baseline="mathematical" x="0px" y="12px">C3</tspan>
      </text>
    </g>
  </g>
  <g transform="matrix(1, 0, 0, 1, 737.76, 526.18)" opacity="1">
    <g>
      <text font-size="24px" font-family="ui-monospace, monospace" font-style="normal" font-weight="normal" line-height="32.400000000000006px" dominant-baseline="mathematical" alignment-baseline="mathematical"  stroke-width="2px" class="depgraph-fill">
        <tspan alignment-baseline="mathematical" x="0px" y="12px">C4</tspan>
      </text>
      <text font-size="24px" font-family="ui-monospace, monospace" font-style="normal" font-weight="normal" line-height="32.400000000000006px" dominant-baseline="mathematical" alignment-baseline="mathematical" stroke="none" stroke-width="2px" class="depgraph-fill">
        <tspan alignment-baseline="mathematical" x="0px" y="12px">C4</tspan>
      </text>
    </g>
  </g>
  <g transform="matrix(1, 0, 0, 1, 732.76, 642.69)" opacity="1">
    <g>
      <text font-size="24px" font-family="ui-monospace, monospace" font-style="normal" font-weight="normal" line-height="32.400000000000006px" dominant-baseline="mathematical" alignment-baseline="mathematical"  stroke-width="2px" class="depgraph-fill">
        <tspan alignment-baseline="mathematical" x="0px" y="12px">C5</tspan>
      </text>
      <text font-size="24px" font-family="ui-monospace, monospace" font-style="normal" font-weight="normal" line-height="32.400000000000006px" dominant-baseline="mathematical" alignment-baseline="mathematical" stroke="none" stroke-width="2px" class="depgraph-fill">
        <tspan alignment-baseline="mathematical" x="0px" y="12px">C5</tspan>
      </text>
    </g>
  </g>
  <g transform="matrix(1, 0, 0, 1, 1016.34, 329.02)" opacity="1">
    <g>
      <text font-size="24px" font-family="ui-monospace, monospace" font-style="normal" font-weight="normal" line-height="32.400000000000006px" dominant-baseline="mathematical" alignment-baseline="mathematical"  stroke-width="2px" class="depgraph-fill">
        <tspan alignment-baseline="mathematical" x="0px" y="12px">C6</tspan>
      </text>
      <text font-size="24px" font-family="ui-monospace, monospace" font-style="normal" font-weight="normal" line-height="32.400000000000006px" dominant-baseline="mathematical" alignment-baseline="mathematical" stroke="none" stroke-width="2px" class="depgraph-fill">
        <tspan alignment-baseline="mathematical" x="0px" y="12px">C6</tspan>
      </text>
    </g>
  </g>
  <g transform="matrix(1, 0, 0, 1, 1022.10, 477.79)" opacity="1">
    <g>
      <text font-size="24px" font-family="ui-monospace, monospace" font-style="normal" font-weight="normal" line-height="32.400000000000006px" dominant-baseline="mathematical" alignment-baseline="mathematical"  stroke-width="2px" class="depgraph-fill">
        <tspan alignment-baseline="mathematical" x="0px" y="12px">C7</tspan>
      </text>
      <text font-size="24px" font-family="ui-monospace, monospace" font-style="normal" font-weight="normal" line-height="32.400000000000006px" dominant-baseline="mathematical" alignment-baseline="mathematical" stroke="none" stroke-width="2px" class="depgraph-fill">
        <tspan alignment-baseline="mathematical" x="0px" y="12px">C7</tspan>
      </text>
    </g>
  </g>
  <g transform="matrix(1, 0, 0, 1, 1020.68, 615.81)" opacity="1">
    <g>
      <text font-size="24px" font-family="ui-monospace, monospace" font-style="normal" font-weight="normal" line-height="32.400000000000006px" dominant-baseline="mathematical" alignment-baseline="mathematical"  stroke-width="2px" class="depgraph-fill">
        <tspan alignment-baseline="mathematical" x="0px" y="12px">C8</tspan>
      </text>
      <text font-size="24px" font-family="ui-monospace, monospace" font-style="normal" font-weight="normal" line-height="32.400000000000006px" dominant-baseline="mathematical" alignment-baseline="mathematical" stroke="none" stroke-width="2px" class="depgraph-fill">
        <tspan alignment-baseline="mathematical" x="0px" y="12px">C8</tspan>
      </text>
    </g>
  </g>
  <g transform="matrix(1, 0, 0, 1, 481.44, 436.56)" opacity="1">
    <g>
      <text font-size="24px" font-family="ui-monospace, monospace" font-style="normal" font-weight="normal" line-height="32.400000000000006px" dominant-baseline="mathematical" alignment-baseline="mathematical"  stroke-width="2px" class="depgraph-fill">
        <tspan alignment-baseline="mathematical" x="0px" y="12px">C1</tspan>
      </text>
      <text font-size="24px" font-family="ui-monospace, monospace" font-style="normal" font-weight="normal" line-height="32.400000000000006px" dominant-baseline="mathematical" alignment-baseline="mathematical" stroke="none" stroke-width="2px" class="depgraph-fill">
        <tspan alignment-baseline="mathematical" x="0px" y="12px">C1</tspan>
      </text>
    </g>
  </g>
  <g transform="matrix(1, 0, 0, 1, 471.06, 588.92)" opacity="1">
    <g>
      <text font-size="24px" font-family="ui-monospace, monospace" font-style="normal" font-weight="normal" line-height="32.400000000000006px" dominant-baseline="mathematical" alignment-baseline="mathematical"  stroke-width="2px" class="depgraph-fill">
        <tspan alignment-baseline="mathematical" x="0px" y="12px">C2</tspan>
      </text>
      <text font-size="24px" font-family="ui-monospace, monospace" font-style="normal" font-weight="normal" line-height="32.400000000000006px" dominant-baseline="mathematical" alignment-baseline="mathematical" stroke="none" stroke-width="2px" class="depgraph-fill">
        <tspan alignment-baseline="mathematical" x="0px" y="12px">C2</tspan>
      </text>
    </g>
  </g>
</svg>
